<svg width="38" height="44" viewBox="0 0 38 44" fill="none" xmlns="http://www.w3.org/2000/svg">
<g clip-path="url(#clip0_9_540)">
<path d="M18.7572 26.8618H18.8595C21.0508 26.9202 22.8038 28.7025 22.8038 30.8938C22.8038 32.7636 21.5329 34.3267 19.8091 34.7942V36.4304C19.8091 37.0147 19.3416 37.4822 18.7572 37.4822C18.1729 37.4822 17.7054 37.0147 17.7054 36.4304V34.7942C16.8471 34.5634 16.0886 34.0563 15.5473 33.3513C15.006 32.6463 14.712 31.7826 14.7107 30.8938C14.7107 30.3094 15.1782 29.8419 15.7625 29.8419C16.3468 29.8419 16.8143 30.3094 16.8143 30.8938C16.8143 31.9748 17.6762 32.8367 18.7426 32.8367C19.8091 32.8367 20.6856 31.9602 20.6856 30.8938C20.6856 29.8273 19.8091 28.9508 18.7426 28.9508H18.6404C17.5895 28.9223 16.5911 28.4852 15.8573 27.7323C15.1235 26.9795 14.7122 25.9702 14.7107 24.9189C14.7107 23.049 15.9816 21.4859 17.7054 21.0184V19.3823C17.7054 18.7979 18.1729 18.3305 18.7572 18.3305C19.3416 18.3305 19.8091 18.7979 19.8091 19.3823V21.0184C21.5329 21.4859 22.8038 23.049 22.8038 24.9189C22.8038 25.5032 22.3363 25.9707 21.752 25.9707C21.1676 25.9707 20.7002 25.5032 20.7002 24.9189C20.7002 23.8525 19.8237 22.976 18.7572 22.976C17.6908 22.976 16.8143 23.8525 16.8143 24.9189C16.8143 25.9853 17.6908 26.8618 18.7572 26.8618Z" fill="#0367A5"/>
<path d="M11.0031 6.05212L15.073 10.8145L14.6333 11.3053C6.25681 13.184 0 20.665 0 29.6083C0 37.4706 6.38099 43.8516 14.2433 43.8516H23.2567C31.119 43.8516 37.5 37.472 37.5 29.6098C37.5146 20.665 31.2578 13.184 22.8813 11.3053C22.9153 10.9966 22.8595 10.6847 22.7206 10.4069L26.1828 6.44362L26.4063 6.09886C26.6673 5.52961 26.7341 4.89038 26.5963 4.27949C26.4586 3.66859 26.124 3.11986 25.6439 2.71769C25.1639 2.31551 24.5651 2.08216 23.9395 2.05354C23.3139 2.02491 22.6963 2.20258 22.1815 2.55923L20.95 1.09838C20.6738 0.789234 20.3355 0.541771 19.9572 0.372116C19.5789 0.202457 19.1691 0.114418 18.7545 0.113728C18.34 0.113037 17.9299 0.199718 17.551 0.368114C17.1722 0.536514 16.8331 0.782852 16.5558 1.09108L15.2659 2.53147C14.7524 2.1674 14.1334 1.98265 13.5044 2.00578C12.8754 2.02892 12.2716 2.25865 11.7863 2.65945C11.301 3.06025 10.9613 3.60978 10.8198 4.22305C10.6782 4.83632 10.7426 5.47915 11.0031 6.05212ZM16.5529 8.07539L14.0753 5.21213C14.6509 5.48948 15.3022 5.56824 15.9273 5.43608C16.5524 5.30392 17.1161 4.9683 17.5302 4.4817L18.6989 2.96534L19.9961 4.50216C20.4006 4.97252 20.9462 5.29959 21.5517 5.43464C22.1571 5.56969 22.79 5.50547 23.356 5.25157L20.8901 8.07539H16.5529ZM2.9217 29.6083C2.9217 20.8607 10.0097 13.7727 18.7573 13.7727C27.5049 13.7727 34.5929 20.8607 34.5783 29.6054V29.6083C34.5771 32.6106 33.3839 35.4896 31.261 37.6126C29.138 39.7355 26.259 40.9287 23.2567 40.9299H14.2433C11.241 40.9287 8.36195 39.7355 6.23899 37.6126C4.11604 35.4896 2.92286 32.6106 2.9217 29.6083Z" fill="#0367A5"/>
</g>
<defs>
<clipPath id="clip0_9_540">
<rect width="37.5" height="43.7378" fill="white" transform="matrix(1 0 0 -1 0 43.8516)"/>
</clipPath>
</defs>
</svg>
