<svg width="42" height="42" viewBox="0 0 42 42" fill="none" xmlns="http://www.w3.org/2000/svg">
<path d="M12.4167 4.11377C13.5212 4.11377 14.4167 3.21834 14.4167 2.11377C14.4167 1.0092 13.5212 0.11377 12.4167 0.11377V4.11377ZM0 12.5304C0 13.635 0.89543 14.5304 2 14.5304C3.10457 14.5304 4 13.635 4 12.5304H0ZM12.4167 41.6138C13.5212 41.6138 14.4167 40.7183 14.4167 39.6138C14.4167 38.5092 13.5212 37.6138 12.4167 37.6138V41.6138ZM4 29.1971C4 28.0925 3.10457 27.1971 2 27.1971C0.89543 27.1971 0 28.0925 0 29.1971H4ZM29.0833 37.6138C27.9788 37.6138 27.0833 38.5092 27.0833 39.6138C27.0833 40.7183 27.9788 41.6138 29.0833 41.6138V37.6138ZM41.5 29.1971C41.5 28.0925 40.6046 27.1971 39.5 27.1971C38.3954 27.1971 37.5 28.0925 37.5 29.1971H41.5ZM29.0833 0.11377C27.9788 0.11377 27.0833 1.0092 27.0833 2.11377C27.0833 3.21834 27.9788 4.11377 29.0833 4.11377V0.11377ZM37.5 12.5304C37.5 13.635 38.3954 14.5304 39.5 14.5304C40.6046 14.5304 41.5 13.635 41.5 12.5304H37.5ZM22.75 12.5304C22.75 11.4259 21.8546 10.5304 20.75 10.5304C19.6454 10.5304 18.75 11.4259 18.75 12.5304H22.75ZM18.75 29.1971C18.75 30.3017 19.6454 31.1971 20.75 31.1971C21.8546 31.1971 22.75 30.3017 22.75 29.1971H18.75ZM31.0833 12.5304C31.0833 11.4259 30.1879 10.5304 29.0833 10.5304C27.9788 10.5304 27.0833 11.4259 27.0833 12.5304H31.0833ZM27.0833 29.1971C27.0833 30.3017 27.9788 31.1971 29.0833 31.1971C30.1879 31.1971 31.0833 30.3017 31.0833 29.1971H27.0833ZM14.4167 12.5304C14.4167 11.4259 13.5212 10.5304 12.4167 10.5304C11.3121 10.5304 10.4167 11.4259 10.4167 12.5304H14.4167ZM10.4167 29.1971C10.4167 30.3017 11.3121 31.1971 12.4167 31.1971C13.5212 31.1971 14.4167 30.3017 14.4167 29.1971H10.4167ZM12.4167 0.11377H4.08333V4.11377H12.4167V0.11377ZM4.08333 0.11377C1.82817 0.11377 0 1.94194 0 4.1971H4C4 4.15108 4.03731 4.11377 4.08333 4.11377V0.11377ZM0 4.1971V12.5304H4V4.1971H0ZM12.4167 37.6138H4.08333V41.6138H12.4167V37.6138ZM4.08333 37.6138C4.03729 37.6138 4 37.5765 4 37.5304H0C0 39.7857 1.82819 41.6138 4.08333 41.6138V37.6138ZM4 37.5304V29.1971H0V37.5304H4ZM29.0833 41.6138H37.4167V37.6138H29.0833V41.6138ZM37.4167 41.6138C39.6719 41.6138 41.5 39.7856 41.5 37.5304H37.5C37.5 37.5765 37.4627 37.6138 37.4167 37.6138V41.6138ZM41.5 37.5304V29.1971H37.5V37.5304H41.5ZM29.0833 4.11377H37.4167V0.11377H29.0833V4.11377ZM37.4167 4.11377C37.4627 4.11377 37.5 4.15106 37.5 4.1971H41.5C41.5 1.94196 39.6719 0.11377 37.4167 0.11377V4.11377ZM37.5 4.1971V12.5304H41.5V4.1971H37.5ZM18.75 12.5304V29.1971H22.75V12.5304H18.75ZM27.0833 12.5304V29.1971H31.0833V12.5304H27.0833ZM10.4167 12.5304V29.1971H14.4167V12.5304H10.4167Z" fill="#0367A5"/>
</svg>
